<svg width="19" height="19" viewBox="0 0 19 19" fill="none" xmlns="http://www.w3.org/2000/svg">
<path fill-rule="evenodd" clip-rule="evenodd" d="M13.3848 0.104492C16.5298 0.104492 18.643 2.24838 18.643 5.43894V12.8743C18.643 16.0649 16.5298 18.2088 13.3848 18.2088H5.25819C2.11316 18.2088 0 16.0649 0 12.8743V5.43894C0 2.24838 2.11316 0.104492 5.25819 0.104492H13.3848ZM13.3848 1.36758H5.25819C2.85455 1.36758 1.30067 2.96497 1.30067 5.43894V12.8743C1.30067 15.3483 2.85455 16.9457 5.25819 16.9457H13.3848C15.7893 16.9457 17.3423 15.3483 17.3423 12.8743V5.43894C17.3423 2.96497 15.7893 1.36758 13.3848 1.36758ZM5.3077 7.01149C5.66669 7.01149 5.95804 7.29442 5.95804 7.64304V13.4196C5.95804 13.7682 5.66669 14.0511 5.3077 14.0511C4.94872 14.0511 4.65737 13.7682 4.65737 13.4196V7.64304C4.65737 7.29442 4.94872 7.01149 5.3077 7.01149ZM9.35454 4.24616C9.71352 4.24616 10.0049 4.5291 10.0049 4.87771V13.4187C10.0049 13.7673 9.71352 14.0503 9.35454 14.0503C8.99555 14.0503 8.7042 13.7673 8.7042 13.4187V4.87771C8.7042 4.5291 8.99555 4.24616 9.35454 4.24616ZM13.3349 10.064C13.6938 10.064 13.9852 10.3469 13.9852 10.6955V13.4187C13.9852 13.7673 13.6938 14.0503 13.3349 14.0503C12.9759 14.0503 12.6845 13.7673 12.6845 13.4187V10.6955C12.6845 10.3469 12.9759 10.064 13.3349 10.064Z" fill="currentColor"/>
</svg>
