<svg width="19" height="19" viewBox="0 0 19 19" fill="none" xmlns="http://www.w3.org/2000/svg">
<path fill-rule="evenodd" clip-rule="evenodd" d="M4.06322 10.2127C7.95339 10.2127 8.12644 11.4939 8.12644 14.1585C8.12644 15.4936 8.12644 16.4433 7.54898 17.1387C6.88452 17.94 5.67512 18.1043 4.06322 18.1043C2.45132 18.1043 1.24191 17.94 0.577455 17.1387C0 16.4433 0 15.4945 0 14.1817L0.717038 14.1585H0C0 11.4939 0.173045 10.2127 4.06322 10.2127ZM14.5798 10.2127C18.47 10.2127 18.643 11.4939 18.643 14.1585C18.643 15.4936 18.643 16.4433 18.0655 17.1387C17.4011 17.94 16.1917 18.1043 14.5798 18.1043C12.9679 18.1043 11.7585 17.94 11.094 17.1387C10.5166 16.4433 10.5166 15.4945 10.5166 14.1817L11.2336 14.1585H10.5166C10.5166 11.4939 10.6896 10.2127 14.5798 10.2127ZM4.26032 11.6057L4.06322 11.6053C1.5689 11.6053 1.44099 11.7791 1.43443 13.8122L1.43483 14.6043C1.43936 15.4129 1.47109 15.997 1.69317 16.266C1.94652 16.5705 2.69893 16.7117 4.06322 16.7117C5.4275 16.7117 6.17991 16.5696 6.43327 16.2651C6.69236 15.9522 6.69236 15.2095 6.69236 14.1808C6.69236 11.8595 6.69236 11.6167 4.26032 11.6057ZM14.7769 11.6057L14.5798 11.6053C12.0855 11.6053 11.9576 11.7791 11.951 13.8122L11.9514 14.6043C11.9559 15.4129 11.9877 15.997 12.2097 16.266C12.4631 16.5705 13.2155 16.7117 14.5798 16.7117C15.9441 16.7117 16.6965 16.5696 16.9498 16.2651C17.2089 15.9522 17.2089 15.2095 17.2089 14.1808C17.2089 11.8595 17.2089 11.6167 14.7769 11.6057ZM4.06322 0C7.95339 0 8.12644 1.28123 8.12644 3.94581C8.12644 5.28088 8.12644 6.23066 7.54898 6.92605C6.88452 7.72728 5.67512 7.89161 4.06322 7.89161C2.45132 7.89161 1.24191 7.72728 0.577455 6.92605C0 6.23066 0 5.28181 0 3.96902L0.717038 3.94581H0C0 1.28123 0.173045 0 4.06322 0ZM14.5798 0C18.47 0 18.643 1.28123 18.643 3.94581C18.643 5.28088 18.643 6.23066 18.0655 6.92605C17.4011 7.72728 16.1917 7.89161 14.5798 7.89161C12.9679 7.89161 11.7585 7.72728 11.094 6.92605C10.5166 6.23066 10.5166 5.28181 10.5166 3.96902L11.2336 3.94581H10.5166C10.5166 1.28123 10.6896 0 14.5798 0ZM4.26032 1.39305L4.06322 1.39264C1.5689 1.39264 1.44099 1.56645 1.43443 3.59955L1.43483 4.39162C1.43936 5.20024 1.47109 5.78436 1.69317 6.05333C1.94652 6.35786 2.69893 6.49898 4.06322 6.49898C5.4275 6.49898 6.17991 6.35693 6.43327 6.0524C6.69236 5.73953 6.69236 4.99679 6.69236 3.96809C6.69236 1.64684 6.69236 1.40398 4.26032 1.39305ZM14.7769 1.39305L14.5798 1.39264C12.0855 1.39264 11.9576 1.56645 11.951 3.59955L11.9514 4.39162C11.9559 5.20024 11.9877 5.78436 12.2097 6.05333C12.4631 6.35786 13.2155 6.49898 14.5798 6.49898C15.9441 6.49898 16.6965 6.35693 16.9498 6.0524C17.2089 5.73953 17.2089 4.99679 17.2089 3.96809C17.2089 1.64684 17.2089 1.40398 14.7769 1.39305Z" fill="currentColor"/>
</svg>
