<svg width="170" height="55" viewBox="0 0 170 55" fill="none" xmlns="http://www.w3.org/2000/svg">
<path d="M10.6534 40.0294C7.93341 40.0294 5.62141 39.3494 3.71741 37.9894C1.84363 36.6294 0.906738 34.7405 0.906738 32.3227H6.52807C6.52807 33.048 6.92096 33.6374 7.70674 34.0907C8.52274 34.544 9.55029 34.7707 10.7894 34.7707C11.9681 34.7707 12.8747 34.5742 13.5094 34.1814C14.1743 33.7582 14.5067 33.2294 14.5067 32.5947C14.5067 32.0205 14.1743 31.5671 13.5094 31.2347C12.8445 30.9022 12.0134 30.6756 11.0161 30.5547C10.049 30.4338 8.97607 30.2525 7.79741 30.0107C6.64896 29.7387 5.57607 29.4062 4.57874 29.0134C3.61163 28.6205 2.79563 27.9556 2.13074 27.0187C1.46585 26.0818 1.13341 24.9031 1.13341 23.4827C1.13341 21.5182 2.02496 19.8862 3.80807 18.5867C5.62141 17.2871 7.85785 16.6374 10.5174 16.6374C13.2374 16.6374 15.4587 17.3022 17.1814 18.632C18.9041 19.9316 19.7654 21.7449 19.7654 24.072H14.1441C14.1441 23.4374 13.7663 22.9085 13.0107 22.4854C12.2854 22.0622 11.4241 21.8507 10.4267 21.8507C9.45963 21.8507 8.64363 22.0471 7.97874 22.44C7.34407 22.8329 7.02674 23.3316 7.02674 23.936C7.02674 24.5102 7.48007 24.9485 8.38674 25.2507C9.29341 25.5529 10.3965 25.8098 11.6961 26.0214C13.0259 26.2027 14.3405 26.4747 15.6401 26.8374C16.9396 27.2 18.0427 27.88 18.9494 28.8774C19.8863 29.8445 20.3699 31.1289 20.4001 32.7307C20.4303 35.1485 19.5387 36.9769 17.7254 38.216C15.9423 39.4249 13.585 40.0294 10.6534 40.0294ZM34.1237 40.0294C30.8899 40.0294 28.1246 38.896 25.8277 36.6294C23.561 34.3325 22.4277 31.5671 22.4277 28.3334C22.4277 25.0996 23.561 22.3494 25.8277 20.0827C28.1246 17.7858 30.8899 16.6374 34.1237 16.6374C36.7833 16.6374 39.1406 17.4382 41.1957 19.04C43.281 20.6116 44.6713 22.6365 45.3664 25.1147H39.1104C37.9921 23.3014 36.345 22.3947 34.169 22.3947C32.5068 22.3947 31.1166 22.9689 29.9984 24.1174C28.8801 25.2356 28.321 26.6409 28.321 28.3334C28.321 30.0258 28.8801 31.4462 29.9984 32.5947C31.1166 33.7129 32.5068 34.272 34.169 34.272C36.1939 34.272 37.7806 33.4409 38.929 31.7787H45.321C44.5957 34.1965 43.2055 36.176 41.1504 37.7174C39.0953 39.2587 36.753 40.0294 34.1237 40.0294ZM57.8178 16.6374C60.8401 16.6374 63.2578 17.5742 65.0712 19.448C66.8845 21.2916 67.7912 24.0569 67.7912 27.744V39.6667H61.8978V27.744C61.8978 25.9005 61.5654 24.5556 60.9005 23.7094C60.2658 22.8329 59.2383 22.3947 57.8178 22.3947C56.3974 22.3947 55.3547 22.8329 54.6898 23.7094C54.0552 24.5556 53.7378 25.9005 53.7378 27.744V39.6667H47.8445V7.93335H53.7378V17.7707C54.8561 17.0151 56.2161 16.6374 57.8178 16.6374Z" fill="#FCFCFC"/>
<path d="M74.4225 20.0828C76.7194 17.7859 79.4847 16.6375 82.7185 16.6375C85.9522 16.6375 88.7025 17.7859 90.9691 20.0828C93.266 22.3495 94.4145 25.0997 94.4145 28.3335C94.4145 31.5672 93.266 34.3326 90.9691 36.6295C88.7025 38.8961 85.9522 40.0295 82.7185 40.0295C79.4847 40.0295 76.7194 38.8961 74.4225 36.6295C72.1558 34.3326 71.0225 31.5672 71.0225 28.3335C71.0225 25.0997 72.1558 22.3495 74.4225 20.0828ZM86.8891 24.1175C85.8011 22.969 84.426 22.3948 82.7638 22.3948C81.1016 22.3948 79.7114 22.969 78.5931 24.1175C77.4749 25.2357 76.9158 26.641 76.9158 28.3335C76.9158 30.0259 77.4749 31.4463 78.5931 32.5948C79.7114 33.713 81.1016 34.2721 82.7638 34.2721C84.426 34.2721 85.8011 33.713 86.8891 32.5948C87.9771 31.4463 88.5211 30.0259 88.5211 28.3335C88.5211 26.641 87.9771 25.2357 86.8891 24.1175ZM100.1 20.0828C102.397 17.7859 105.162 16.6375 108.396 16.6375C111.63 16.6375 114.38 17.7859 116.647 20.0828C118.944 22.3495 120.092 25.0997 120.092 28.3335C120.092 31.5672 118.944 34.3326 116.647 36.6295C114.38 38.8961 111.63 40.0295 108.396 40.0295C105.162 40.0295 102.397 38.8961 100.1 36.6295C97.8334 34.3326 96.7 31.5672 96.7 28.3335C96.7 25.0997 97.8334 22.3495 100.1 20.0828ZM112.567 24.1175C111.479 22.969 110.104 22.3948 108.441 22.3948C106.779 22.3948 105.389 22.969 104.271 24.1175C103.152 25.2357 102.593 26.641 102.593 28.3335C102.593 30.0259 103.152 31.4463 104.271 32.5948C105.389 33.713 106.779 34.2721 108.441 34.2721C110.104 34.2721 111.479 33.713 112.567 32.5948C113.655 31.4463 114.199 30.0259 114.199 28.3335C114.199 26.641 113.655 25.2357 112.567 24.1175Z" fill="#55AC68"/>
<path d="M71.1936 30.2587C72.2368 30.2587 73.0825 29.4131 73.0825 28.3698C73.0825 27.3266 72.2368 26.481 71.1936 26.481C70.1504 26.481 69.3047 27.3266 69.3047 28.3698C69.3047 29.4131 70.1504 30.2587 71.1936 30.2587Z" fill="#55AC68"/>
<path d="M119.918 30.2587C118.875 30.2587 118.029 29.4131 118.029 28.3698C118.029 27.3266 118.875 26.481 119.918 26.481C120.961 26.481 121.807 27.3266 121.807 28.3698C121.807 29.4131 120.961 30.2587 119.918 30.2587Z" fill="#55AC68"/>
<path d="M91.5483 28.9021C92.6354 26.8845 98.0277 26.8845 99.1143 28.9021H91.5483Z" fill="#55AC68"/>
<path d="M91.5483 28.9021C92.6354 26.8845 98.0277 26.8845 99.1143 28.9021" stroke="#55AC68" stroke-width="4"/>
<path d="M129.087 39.6667H123.193V7.93335H129.087V39.6667ZM143.296 40.0294C140.062 40.0294 137.297 38.896 135 36.6294C132.733 34.3325 131.6 31.5671 131.6 28.3334C131.6 25.0996 132.733 22.3494 135 20.0827C137.297 17.7858 140.062 16.6374 143.296 16.6374C146.53 16.6374 149.28 17.7858 151.547 20.0827C153.813 22.3494 154.947 25.0996 154.947 28.3334V39.6667H149.053V37.264C148.721 38.0196 147.995 38.6694 146.877 39.2134C145.759 39.7574 144.565 40.0294 143.296 40.0294ZM139.171 32.5947C140.289 33.7129 141.679 34.272 143.341 34.272C145.003 34.272 146.379 33.7129 147.467 32.5947C148.555 31.4462 149.099 30.0258 149.099 28.3334C149.099 26.6409 148.555 25.2356 147.467 24.1174C146.379 22.9689 145.003 22.3947 143.341 22.3947C141.679 22.3947 140.289 22.9689 139.171 24.1174C138.052 25.2356 137.493 26.6409 137.493 28.3334C137.493 30.0258 138.052 31.4462 139.171 32.5947ZM158.123 39.6667V27.744C158.123 24.1476 159.014 21.4427 160.797 19.6294C162.58 17.816 164.923 16.9094 167.824 16.9094H168.096V22.6667H167.869C165.3 22.6667 164.016 24.3591 164.016 27.744V39.6667H158.123Z" fill="#FCFCFC"/>
</svg>
