<svg width="192" height="53" viewBox="0 0 192 53" fill="none" xmlns="http://www.w3.org/2000/svg">
<path fill-rule="evenodd" clip-rule="evenodd" d="M86.4137 21.2605C79.4443 32.929 72.3527 44.8066 70.6551 47.6552L67.5681 52.8347L69.5167 52.7263L71.4657 52.6175L86.0061 28.6144C94.003 15.4127 100.693 4.5635 100.872 4.50534C101.051 4.44681 104.598 10.0056 108.753 16.8577L116.309 29.3159H118.365H120.421L119.845 28.3225C119.528 27.7759 115.598 21.2326 111.11 13.7815L102.952 0.2341L101.019 0.139448L99.0853 0.0451581L86.4137 21.2605ZM142.908 26.4179V52.8361L144.756 52.7266L146.604 52.6175L146.695 28.1418L146.785 3.66612L161.478 3.67154C177.732 3.67732 178.917 3.80268 182.791 5.92186C186.853 8.14364 188.906 12.1562 188.588 17.2472C188.203 23.3999 184.148 27.6238 177.169 29.1414C175.529 29.498 172.494 29.6667 167.635 29.6711L160.508 29.6772V31.3029V32.9286L168.163 32.9224C176.897 32.9152 179.296 32.5464 183.295 30.5977C186.655 28.9597 189.4 26.2846 190.872 23.2131C191.975 20.914 192.01 20.6958 191.999 16.3169C191.987 12.1963 191.903 11.61 191.049 9.71622C189.175 5.55806 185.246 2.40964 180.043 0.897744C178.218 0.367406 175.55 0.264446 160.42 0.141977L142.908 0V26.4179ZM0 26.6065V52.7982H1.75995H3.51991V28.2321V3.66612H23.4074H43.2948V2.04043V0.414732H21.6474H0V26.6065ZM54.5585 26.6065V52.7982H56.4945H58.4304V26.6065V0.414732H56.4945H54.5585V26.6065ZM14.0796 27.329V28.9547H23.4074H32.7351V27.329V25.7033H23.4074H14.0796V27.329ZM122.82 40.0636C123.014 40.4115 124.816 43.3782 126.824 46.6567L130.474 52.6175L132.488 52.7266L134.502 52.8354L134.041 51.9734C133.788 51.4991 132.001 48.4832 130.071 45.2712L126.562 39.4314H124.515C122.666 39.4314 122.502 39.4924 122.82 40.0636Z" fill="#989898"/>
</svg>
