<svg width="319" height="79" viewBox="0 0 319 79" fill="none" xmlns="http://www.w3.org/2000/svg">
<path d="M38.6291 2.71557C27.2648 4.83869 17.2462 12.1462 12.0126 22.1693C9.57023 26.9093 8.67304 29.6743 7.72601 35.5499C7.07804 39.7468 7.07804 40.6849 7.77586 44.6843C8.17461 47.1037 8.92226 50.3625 9.37086 51.8437L10.2182 54.5593L10.4674 44.1906C10.7166 35.3524 10.916 33.3281 11.863 30.3656C15.7509 18.2193 24.8723 9.38119 36.8846 6.12244C41.869 4.73994 50.5418 4.83869 55.3268 6.31994C61.8563 8.34432 65.5946 10.6156 70.579 15.5037C74.3173 19.2068 75.5135 20.7374 77.1584 24.1937C80.3982 30.7606 80.8468 32.9824 81.1459 44.4374L81.3951 54.5593L82.5415 50.7081C90.666 23.6999 66.741 -2.51818 38.6291 2.71557Z" fill="#989898"/>
<path d="M42.1184 8.93688C31.8506 9.92438 22.2806 16.59 17.4956 26.0206C14.6545 31.6988 14.3555 33.6244 14.1062 47.7456C13.857 60.2869 13.9069 60.7313 14.9037 62.3606C17.1965 66.0637 17.1965 66.0637 17.1965 50.2144L17.2464 35.3031L18.5922 31.4025C20.3865 26.4156 21.9815 23.7 25.1715 20.4906C30.8537 14.7138 37.6325 11.85 45.6075 11.85C51.19 11.85 54.5794 12.64 59.4142 15.1581C63.5512 17.2813 68.3861 22.0706 70.8783 26.5144C73.9187 31.9456 74.2676 34.4638 74.2676 50.955L74.3175 65.4219L75.7629 63.6938L77.2084 61.9656L77.2583 48.8319C77.2583 33.575 76.7598 30.5138 73.1212 24.2431C67.0403 13.6769 54.9781 7.7025 42.1184 8.93688Z" fill="#989898"/>
<path d="M145.544 33.0812V57.2749H149.781H154.017V33.0812V8.8874H149.781H145.544V33.0812Z" fill="#989898"/>
<path d="M285.755 9.57865C282.764 10.5168 280.471 12.0474 277.929 14.8618C274.041 19.1574 273.942 19.5524 273.742 39.5987L273.593 57.2749H277.829H282.116V45.6718V34.0687H286.353H290.589V29.8718V25.6749H286.353C281.518 25.6749 281.368 25.5268 283.163 21.873C284.259 19.6018 287.499 17.2812 289.493 17.2812C290.54 17.2812 290.589 17.0343 290.589 13.0843V8.8874L289.244 8.93678C288.446 8.93678 286.901 9.23302 285.755 9.57865Z" fill="#989898"/>
<path d="M296.57 28.2424C296.62 42.7587 296.77 48.0912 297.268 49.4243C299.013 54.3124 303.399 57.2749 308.932 57.2749H312.022V53.1274V48.9799H309.43C305.393 48.9799 305.044 48.2887 305.044 40.438V34.0687H309.031H313.069L312.919 29.9705L312.77 25.9218L308.932 25.7737L305.044 25.6255V17.2812V8.8874H300.807H296.57V28.2424Z" fill="#989898"/>
<path d="M39.1276 16.2442C31.4018 18.4167 25.4704 23.8479 22.3302 31.5504C21.2337 34.2167 21.1838 35.0067 21.0343 51.646L20.8848 69.026L22.3801 70.1123L23.9252 71.1492V54.2135C23.9252 41.0798 24.0748 36.636 24.623 34.5623C28.0124 21.7248 42.4671 14.7629 54.4795 20.1942C60.9093 23.0579 66.0432 29.3779 67.2893 35.9942C67.5385 37.426 67.7877 45.9679 67.7877 54.9048V71.1492L69.3329 70.0135L70.8282 68.8779L70.6787 51.8435C70.4793 35.9448 70.4295 34.6117 69.4326 31.9948C64.7473 19.5523 51.5387 12.6892 39.1276 16.2442Z" fill="#989898"/>
<path d="M159.5 31.6987C159.5 37.7719 159.749 43.6969 159.998 44.9312C161.145 49.8687 164.534 54.2631 169.22 56.6825C171.413 57.8675 172.31 58.0156 176.447 58.0156C180.684 58.0156 181.481 57.8675 184.073 56.5837C187.462 54.8556 190.553 51.745 192.048 48.4862C193.045 46.3137 193.145 45.2769 193.294 33.4269L193.444 20.6881L189.307 20.8362L185.17 20.9844L184.92 32.8344C184.671 45.7706 184.621 45.9681 181.581 48.2394C180.036 49.4244 179.288 49.6219 176.646 49.6219C173.905 49.6219 173.307 49.4244 171.612 48.0912C168.322 45.4744 168.223 45.03 168.073 32.1925L167.924 20.7375H163.687H159.5V31.6987Z" fill="#989898"/>
<path d="M115.089 22.12C109.906 24.1937 106.765 27.2056 104.273 32.4887L102.927 35.3031L102.778 53.4237L102.628 71.5938H106.865H111.152V55.2506C111.152 37.3275 111.301 36.2412 113.943 33.1306C116.036 30.7606 118.379 29.625 121.32 29.625C125.307 29.625 128.497 31.4519 130.69 35.0069C132.784 38.3644 131.737 44.2894 128.497 47.2519C125.806 49.7206 121.27 50.56 117.881 49.1775L116.136 48.4369V53.0781V57.7194L117.93 58.065C121.37 58.7069 126.653 58.0156 129.694 56.5344C141.507 50.8069 144.098 35.8462 134.927 26.6131C131.189 22.8112 127.949 21.5275 122.117 21.3794C118.429 21.2806 116.884 21.4287 115.089 22.12Z" fill="#989898"/>
<path d="M206.503 22.1692C201.12 23.9961 198.428 27.4523 198.378 32.4886C198.378 37.4755 201.07 40.2898 207.699 42.2155C217.867 45.1286 218.017 45.178 218.764 46.5111C219.412 47.6467 219.412 47.943 218.665 49.0292C216.721 51.9423 209.294 51.9423 203.363 49.0292C201.568 48.1405 200.322 47.7948 200.173 48.0911C200.073 48.3873 199.375 49.918 198.677 51.498L197.381 54.3617L200.472 55.7936C207.849 59.2498 217.867 59.1511 223.151 55.6455C226.689 53.2755 227.836 50.9548 227.686 46.5605C227.537 43.2523 227.387 42.8573 225.792 41.228C223.599 38.9567 221.157 37.8705 215.325 36.3892C209.144 34.8092 208.048 34.3155 207.35 33.0317C206.553 31.5505 207.35 29.9211 209.394 28.8348C211.687 27.6498 217.169 28.0942 220.908 29.773L223.749 31.0073L224.995 27.8473C225.693 26.1192 226.291 24.5886 226.291 24.4405C226.291 23.9961 223.001 22.5642 220.559 21.9223C216.92 20.9348 209.643 21.083 206.503 22.1692Z" fill="#989898"/>
<path d="M243.088 22.4163C239.998 23.7 239.4 24.095 236.808 26.3663C231.126 31.5013 229.531 40.7344 233.12 47.9431C235.063 51.8438 238.204 54.8556 242.141 56.6825C244.633 57.8675 245.63 58.0156 249.967 58.0156C254.303 58.0156 255.3 57.8675 257.792 56.6825C261.73 54.8556 264.87 51.8438 266.814 47.9431C268.309 44.9313 268.409 44.3388 268.409 39.7469C268.409 35.155 268.309 34.5625 266.814 31.5506C264.87 27.65 261.73 24.6381 257.792 22.8113C253.655 20.8856 247.176 20.7375 243.088 22.4163ZM254.752 30.7606C264.122 35.6981 260.284 49.8688 249.568 49.8688C246.926 49.8688 243.138 47.7456 241.394 45.2769C240.197 43.5488 239.998 42.8081 239.998 39.6975C239.998 36.5375 240.148 35.8956 241.493 34.0194C243.437 31.2544 246.627 29.625 249.967 29.625C251.711 29.625 253.256 30.02 254.752 30.7606Z" fill="#989898"/>
<path d="M42.3672 22.268C36.5355 23.453 31.8004 27.1067 29.2583 32.4886L27.6633 35.7967L27.5138 54.6086L27.3643 73.3711L28.6602 73.9636C29.358 74.3092 30.0558 74.5561 30.1555 74.5561C30.2552 74.5561 30.4047 66.0636 30.5044 55.6455C30.6539 35.0561 30.6041 35.4511 33.7443 30.958C36.685 26.7117 42.9654 24.1936 48.0494 25.1317C51.688 25.7736 54.1304 27.1067 56.6724 29.7236C60.8094 33.9698 60.8094 33.723 60.8094 55.3986C60.8094 75.5436 60.8094 75.4942 62.9527 73.9636C63.7004 73.3711 63.8 71.5936 63.8 55.0036C63.8499 35.5005 63.7004 34.3155 61.2082 30.2667C59.663 27.7486 55.4761 24.3417 52.6849 23.3049C49.3952 22.0705 45.2582 21.6755 42.3672 22.268Z" fill="#989898"/>
<path d="M41.1215 29.5755C38.5795 30.7112 36.486 32.7849 35.3396 35.303C34.4923 37.1299 34.3926 38.9074 34.3926 56.8305V76.4324L35.539 76.7287C36.1371 76.8768 36.7851 77.0249 37.0343 77.0249C37.2337 77.0249 37.3832 68.1868 37.3832 57.3737C37.3832 37.9693 37.433 37.7718 38.5296 35.7968C40.5732 32.2418 45.8068 30.5137 49.246 32.2912C53.732 34.6118 55.4765 39.4011 53.3332 43.6474C51.4391 47.4987 46.0062 49.523 42.4673 47.6962L40.8723 46.8568V48.5849C40.8723 50.6587 41.1215 50.8562 44.6105 51.2018C55.626 52.3374 61.7568 38.8087 53.4827 31.5999C49.9937 28.5387 45.109 27.7486 41.1215 29.5755Z" fill="#989898"/>
<path d="M43.4139 35.698C39.9747 37.673 40.1242 42.5117 43.713 44.1905C47.0525 45.7705 50.4419 43.6967 50.5416 40.043C50.5416 38.5123 50.2924 37.7223 49.2955 36.7842C47.8002 35.2536 45.0588 34.7598 43.4139 35.698Z" fill="#989898"/>
<path d="M55.7257 51.2018L54.3301 52.6337V64.8293V77.0249L55.7257 76.7287C56.4734 76.5312 57.1213 76.3337 57.221 76.2843C57.2709 76.2349 57.2709 70.2605 57.221 63.0024L57.0715 49.8193L55.7257 51.2018Z" fill="#989898"/>
<path d="M40.8721 65.8661C40.8721 75.9386 40.9718 77.4693 41.6696 77.7161C43.8627 78.5555 43.8627 78.6543 43.8627 66.4586V54.9049L42.7661 54.6086C42.1182 54.4605 41.4702 54.3124 41.2708 54.3124C41.0216 54.3124 40.8721 59.4968 40.8721 65.8661Z" fill="#989898"/>
<path d="M48.7473 54.658C47.8999 54.8555 47.8501 55.843 47.8501 66.4586C47.8501 78.6543 47.8501 78.5555 50.0432 77.7161C50.741 77.4693 50.8407 75.9386 50.8407 65.8661C50.8407 53.8186 50.8906 54.0655 48.7473 54.658Z" fill="#989898"/>
</svg>
