<svg width="262" height="119" viewBox="0 0 262 119" fill="none" xmlns="http://www.w3.org/2000/svg">
<path d="M29.0254 59H10.0254" stroke="#0A3180" stroke-width="4"/>
<path d="M233.025 59H252.025" stroke="#0A3180" stroke-width="4"/>
<path d="M27.7242 18.938C39.0051 7.646 52.5867 2 68.4691 2C84.3514 2 97.8589 7.646 108.991 18.938C120.272 30.0814 125.913 43.6021 125.913 59.5C125.913 75.3979 120.272 88.9929 108.991 100.285C97.8589 111.428 84.3514 117 68.4691 117C52.5867 117 39.0051 111.428 27.7242 100.285C16.5917 88.9929 11.0254 75.3979 11.0254 59.5C11.0254 43.6021 16.5917 30.0814 27.7242 18.938ZM88.9529 38.7733C83.6093 33.1273 76.8556 30.3043 68.6918 30.3043C60.5279 30.3043 53.7 33.1273 48.208 38.7733C42.7159 44.2707 39.9699 51.1796 39.9699 59.5C39.9699 67.8204 42.7159 74.8036 48.208 80.4496C53.7 85.947 60.5279 88.6957 68.6918 88.6957C76.8556 88.6957 83.6093 85.947 88.9529 80.4496C94.2965 74.8036 96.9683 67.8204 96.9683 59.5C96.9683 51.1796 94.2965 44.2707 88.9529 38.7733ZM153.837 18.938C165.118 7.646 178.699 2 194.582 2C210.464 2 223.972 7.646 235.104 18.938C246.385 30.0814 252.025 43.6021 252.025 59.5C252.025 75.3979 246.385 88.9929 235.104 100.285C223.972 111.428 210.464 117 194.582 117C178.699 117 165.118 111.428 153.837 100.285C142.704 88.9929 137.138 75.3979 137.138 59.5C137.138 43.6021 142.704 30.0814 153.837 18.938ZM215.066 38.7733C209.722 33.1273 202.968 30.3043 194.804 30.3043C186.641 30.3043 179.813 33.1273 174.321 38.7733C168.829 44.2707 166.083 51.1796 166.083 59.5C166.083 67.8204 168.829 74.8036 174.321 80.4496C179.813 85.947 186.641 88.6957 194.804 88.6957C202.968 88.6957 209.722 85.947 215.066 80.4496C220.409 74.8036 223.081 67.8204 223.081 59.5C223.081 51.1796 220.409 44.2707 215.066 38.7733Z" fill="#0A3180"/>
<path d="M10.5254 69C15.7721 69 20.0254 64.7467 20.0254 59.5C20.0254 54.2533 15.7721 50 10.5254 50C5.27869 50 1.02539 54.2533 1.02539 59.5C1.02539 64.7467 5.27869 69 10.5254 69Z" fill="#0A3180"/>
<path d="M251.525 69C246.279 69 242.025 64.7467 242.025 59.5C242.025 54.2533 246.279 50 251.525 50C256.772 50 261.025 54.2533 261.025 59.5C261.025 64.7467 256.772 69 251.525 69Z" fill="#0A3180"/>
<path d="M112.025 69C117.485 50.3333 144.568 50.3333 150.025 69" stroke="#0A3180" stroke-width="20"/>
</svg>
