<svg width="172" height="55" viewBox="0 0 172 55" fill="none" xmlns="http://www.w3.org/2000/svg">
<path d="M10.7648 40.1917C8.01629 40.1917 5.68007 39.509 3.75613 38.1434C1.86272 36.7779 0.916016 34.8814 0.916016 32.4538H6.59623C6.59623 33.1821 6.99324 33.7738 7.78725 34.229C8.6118 34.6841 9.65012 34.9117 10.9022 34.9117C12.0932 34.9117 13.0094 34.7145 13.6507 34.32C14.3226 33.8952 14.6585 33.3641 14.6585 32.7269C14.6585 32.1503 14.3226 31.6952 13.6507 31.3614C12.9788 31.0276 12.139 30.8 11.1312 30.6786C10.154 30.5572 9.06988 30.3752 7.87886 30.1324C6.71839 29.8593 5.63426 29.5255 4.62648 29.131C3.64924 28.7365 2.82469 28.069 2.15284 27.1283C1.48098 26.1876 1.14506 25.0041 1.14506 23.5779C1.14506 21.6055 2.04595 19.9669 3.84774 18.6621C5.68007 17.3572 7.93994 16.7048 10.6274 16.7048C13.3759 16.7048 15.6205 17.3724 17.3612 18.7076C19.1019 20.0124 19.9722 21.8331 19.9722 24.1697H14.292C14.292 23.5324 13.9103 23.0014 13.1468 22.5766C12.4139 22.1517 11.5435 21.9393 10.5357 21.9393C9.5585 21.9393 8.73395 22.1365 8.0621 22.531C7.42078 22.9255 7.10013 23.4262 7.10013 24.0331C7.10013 24.6097 7.55821 25.0497 8.47437 25.3531C9.39054 25.6565 10.5052 25.9145 11.8184 26.1269C13.1621 26.309 14.4905 26.5821 15.8037 26.9462C17.1169 27.3103 18.2315 27.9931 19.1477 28.9945C20.0944 29.9655 20.583 31.2552 20.6136 32.8634C20.6441 35.291 19.7432 37.1269 17.9109 38.371C16.1091 39.5848 13.727 40.1917 10.7648 40.1917ZM34.4809 40.1917C31.2133 40.1917 28.419 39.0538 26.098 36.7779C23.8076 34.4717 22.6624 31.6952 22.6624 28.4483C22.6624 25.2014 23.8076 22.44 26.098 20.1641C28.419 17.8579 31.2133 16.7048 34.4809 16.7048C37.1684 16.7048 39.5504 17.509 41.627 19.1172C43.7342 20.6952 45.139 22.7283 45.8414 25.2165H39.5198C38.3899 23.3959 36.7255 22.4855 34.5267 22.4855C32.8471 22.4855 31.4423 23.0621 30.3124 24.2152C29.1825 25.3379 28.6175 26.749 28.6175 28.4483C28.6175 30.1476 29.1825 31.5738 30.3124 32.7269C31.4423 33.8497 32.8471 34.411 34.5267 34.411C36.5728 34.411 38.1761 33.5765 39.3366 31.9076H45.7956C45.0626 34.3352 43.6579 36.3228 41.5812 37.8703C39.5046 39.4179 37.1378 40.1917 34.4809 40.1917ZM58.4233 16.7048C61.4772 16.7048 63.9203 17.6455 65.7526 19.5269C67.5849 21.3779 68.5011 24.1545 68.5011 27.8566V39.8276H62.546V27.8566C62.546 26.0055 62.2101 24.6552 61.5382 23.8055C60.8969 22.9255 59.8586 22.4855 58.4233 22.4855C56.9879 22.4855 55.9344 22.9255 55.2625 23.8055C54.6212 24.6552 54.3005 26.0055 54.3005 27.8566V39.8276H48.3455V7.96552H54.3005V17.8428C55.4305 17.0841 56.8047 16.7048 58.4233 16.7048Z" fill="#0A3180"/>
<path d="M75.2017 20.1641C77.5227 17.8579 80.317 16.7048 83.5846 16.7048C86.8523 16.7048 89.6313 17.8579 91.9217 20.1641C94.2427 22.44 95.4032 25.2014 95.4032 28.4483C95.4032 31.6952 94.2427 34.4717 91.9217 36.7779C89.6313 39.0538 86.8523 40.1917 83.5846 40.1917C80.317 40.1917 77.5227 39.0538 75.2017 36.7779C72.9113 34.4717 71.7661 31.6952 71.7661 28.4483C71.7661 25.2014 72.9113 22.44 75.2017 20.1641ZM87.799 24.2152C86.6996 23.0621 85.3101 22.4855 83.6304 22.4855C81.9508 22.4855 80.546 23.0621 79.4161 24.2152C78.2862 25.3379 77.7212 26.749 77.7212 28.4483C77.7212 30.1476 78.2862 31.5738 79.4161 32.7269C80.546 33.8497 81.9508 34.411 83.6304 34.411C85.3101 34.411 86.6996 33.8497 87.799 32.7269C88.8984 31.5738 89.4481 30.1476 89.4481 28.4483C89.4481 26.749 88.8984 25.3379 87.799 24.2152ZM101.148 20.1641C103.469 17.8579 106.264 16.7048 109.531 16.7048C112.799 16.7048 115.578 17.8579 117.868 20.1641C120.189 22.44 121.35 25.2014 121.35 28.4483C121.35 31.6952 120.189 34.4717 117.868 36.7779C115.578 39.0538 112.799 40.1917 109.531 40.1917C106.264 40.1917 103.469 39.0538 101.148 36.7779C98.8579 34.4717 97.7127 31.6952 97.7127 28.4483C97.7127 25.2014 98.8579 22.44 101.148 20.1641ZM113.746 24.2152C112.646 23.0621 111.257 22.4855 109.577 22.4855C107.897 22.4855 106.493 23.0621 105.363 24.2152C104.233 25.3379 103.668 26.749 103.668 28.4483C103.668 30.1476 104.233 31.5738 105.363 32.7269C106.493 33.8497 107.897 34.411 109.577 34.411C111.257 34.411 112.646 33.8497 113.746 32.7269C114.845 31.5738 115.395 30.1476 115.395 28.4483C115.395 26.749 114.845 25.3379 113.746 24.2152Z" fill="#55AC68"/>
<path d="M71.9394 30.3815C72.9936 30.3815 73.8481 29.5324 73.8481 28.4849C73.8481 27.4375 72.9936 26.5884 71.9394 26.5884C70.8853 26.5884 70.0308 27.4375 70.0308 28.4849C70.0308 29.5324 70.8853 30.3815 71.9394 30.3815Z" fill="#55AC68"/>
<path d="M121.175 30.3815C120.121 30.3815 119.266 29.5324 119.266 28.4849C119.266 27.4375 120.121 26.5884 121.175 26.5884C122.229 26.5884 123.083 27.4375 123.083 28.4849C123.083 29.5324 122.229 30.3815 121.175 30.3815Z" fill="#55AC68"/>
<path d="M92.5078 29.0193C93.6062 26.9936 99.055 26.9936 100.153 29.0193H92.5078Z" fill="#55AC68"/>
<path d="M92.5078 29.0193C93.6062 26.9936 99.055 26.9936 100.153 29.0193" stroke="#55AC68" stroke-width="5"/>
<path d="M130.439 39.8276H124.484V7.96552H130.439V39.8276ZM144.797 40.1917C141.529 40.1917 138.735 39.0538 136.414 36.7779C134.124 34.4717 132.978 31.6952 132.978 28.4483C132.978 25.2014 134.124 22.44 136.414 20.1641C138.735 17.8579 141.529 16.7048 144.797 16.7048C148.065 16.7048 150.844 17.8579 153.134 20.1641C155.424 22.44 156.57 25.2014 156.57 28.4483V39.8276H150.615V37.4152C150.279 38.1738 149.546 38.8262 148.416 39.3724C147.286 39.9186 146.08 40.1917 144.797 40.1917ZM140.628 32.7269C141.758 33.8497 143.163 34.411 144.843 34.411C146.522 34.411 147.912 33.8497 149.011 32.7269C150.111 31.5738 150.66 30.1476 150.66 28.4483C150.66 26.749 150.111 25.3379 149.011 24.2152C147.912 23.0621 146.522 22.4855 144.843 22.4855C143.163 22.4855 141.758 23.0621 140.628 24.2152C139.498 25.3379 138.934 26.749 138.934 28.4483C138.934 30.1476 139.498 31.5738 140.628 32.7269ZM159.779 39.8276V27.8566C159.779 24.2455 160.68 21.5297 162.482 19.709C164.284 17.8883 166.65 16.9779 169.582 16.9779H169.857V22.7586H169.628C167.032 22.7586 165.734 24.4579 165.734 27.8566V39.8276H159.779Z" fill="#0A3180"/>
</svg>
